<svg width="248" height="94" viewBox="0 0 248 94" fill="none" xmlns="http://www.w3.org/2000/svg">
<g clip-path="url(#clip0_32_175)">
<path d="M18.19 44.29L4.19002 36.57C3.58002 36.2 3.40002 35.28 3.84002 34.73L13.81 21.67" stroke="#8F46EF" stroke-width="7.1873" stroke-miterlimit="10"/>
<path d="M91.41 78.01C97.74 78.01 102.87 72.88 102.87 66.55C102.87 60.22 97.74 55.09 91.41 55.09C85.08 55.09 79.95 60.22 79.95 66.55C79.95 72.88 85.08 78.01 91.41 78.01Z" fill="#8F46EF"/>
<path d="M224.77 76.67C220.05 76.67 215.96 75.67 212.52 73.66C209.09 71.63 206.45 68.82 204.58 65.21C202.72 61.58 201.78 57.38 201.78 52.59C201.78 47.77 202.71 43.55 204.58 39.94C206.45 36.31 209.09 33.5 212.52 31.49C215.96 29.46 220.05 28.45 224.77 28.45C229.49 28.45 233.57 29.46 236.99 31.49C240.43 33.5 243.09 36.31 244.95 39.94C246.81 43.55 247.75 47.76 247.75 52.59C247.75 57.37 246.82 61.58 244.95 65.21C243.08 68.82 240.43 71.63 236.99 73.66C233.57 75.67 229.49 76.67 224.77 76.67ZM224.83 66.64C226.98 66.64 228.77 66.03 230.21 64.82C231.65 63.58 232.73 61.9 233.46 59.77C234.21 57.64 234.58 55.22 234.58 52.5C234.58 49.78 234.2 47.36 233.46 45.23C232.73 43.1 231.65 41.42 230.21 40.18C228.77 38.94 226.98 38.33 224.83 38.33C222.66 38.33 220.84 38.95 219.36 40.18C217.9 41.42 216.8 43.1 216.05 45.23C215.32 47.36 214.95 49.78 214.95 52.5C214.95 55.22 215.31 57.64 216.05 59.77C216.8 61.9 217.9 63.58 219.36 64.82C220.84 66.03 222.66 66.64 224.83 66.64Z" fill="#8F46EF"/>
<path d="M152.07 93.27V29.07H164.84V36.91H165.42C165.99 35.65 166.81 34.38 167.88 33.08C168.97 31.76 170.39 30.67 172.13 29.8C173.89 28.91 176.08 28.46 178.7 28.46C182.1 28.46 185.25 29.35 188.12 31.14C191 32.9 193.3 35.57 195.02 39.14C196.74 42.69 197.6 47.14 197.6 52.49C197.6 57.7 196.76 62.1 195.08 65.68C193.42 69.25 191.15 71.95 188.27 73.8C185.41 75.62 182.21 76.54 178.66 76.54C176.15 76.54 174.01 76.13 172.25 75.29C170.51 74.46 169.08 73.42 167.96 72.16C166.85 70.88 165.99 69.6 165.41 68.3H165.02V93.29H152.07V93.27ZM164.75 52.41C164.75 55.19 165.13 57.61 165.91 59.68C166.68 61.75 167.79 63.36 169.25 64.51C170.71 65.64 172.48 66.21 174.57 66.21C176.68 66.21 178.46 65.63 179.92 64.48C181.38 63.3 182.48 61.68 183.23 59.62C184 57.53 184.38 55.13 184.38 52.42C184.38 49.72 184 47.35 183.26 45.31C182.51 43.26 181.41 41.66 179.95 40.51C178.49 39.35 176.7 38.78 174.57 38.78C172.46 38.78 170.68 39.34 169.22 40.45C167.78 41.56 166.68 43.15 165.91 45.19C165.13 47.22 164.75 49.64 164.75 52.41Z" fill="#8F46EF"/>
<path d="M145.42 42.38L133.56 43.11C133.36 42.1 132.92 41.18 132.25 40.37C131.58 39.54 130.7 38.88 129.6 38.39C128.53 37.88 127.24 37.63 125.74 37.63C123.73 37.63 122.04 38.06 120.66 38.91C119.28 39.74 118.59 40.86 118.59 42.25C118.59 43.36 119.04 44.31 119.93 45.08C120.82 45.85 122.35 46.47 124.52 46.93L132.97 48.63C137.51 49.56 140.89 51.06 143.12 53.13C145.35 55.2 146.46 57.91 146.46 61.28C146.46 64.34 145.56 67.03 143.75 69.34C141.97 71.65 139.51 73.45 136.39 74.75C133.29 76.03 129.71 76.67 125.66 76.67C119.48 76.67 114.55 75.38 110.89 72.81C107.24 70.22 105.1 66.69 104.48 62.23L117.22 61.56C117.6 63.44 118.54 64.88 120.02 65.88C121.5 66.85 123.39 67.34 125.7 67.34C127.97 67.34 129.79 66.9 131.17 66.03C132.57 65.14 133.28 63.99 133.3 62.59C133.28 61.41 132.78 60.45 131.81 59.7C130.84 58.93 129.34 58.34 127.31 57.94L119.22 56.33C114.66 55.42 111.26 53.84 109.04 51.59C106.83 49.34 105.73 46.47 105.73 42.99C105.73 39.99 106.54 37.41 108.16 35.24C109.8 33.07 112.1 31.4 115.06 30.22C118.04 29.04 121.53 28.46 125.52 28.46C131.42 28.46 136.06 29.71 139.44 32.2C142.87 34.69 144.85 38.08 145.42 42.38Z" fill="#8F46EF"/>
<path d="M80.5 56C80.5 56 84.22 50.96 91 51.5L66.48 0C60.42 0 54.36 0 48.3 0C44.89 6.74 41.47 13.48 38.06 20.22C35.53 25.29 33.01 30.36 30.48 35.42C29.2 37.29 27.54 40.1 26.26 43.77C25.54 45.83 24.62 48.7 24.46 52.41C24.25 57.04 25.33 61.55 27.72 65.39C31.31 71.15 36.78 73.61 39.21 74.52C40.9 75.03 46.11 76.38 52.1 74.16C59.09 71.57 62.24 65.93 62.97 64.53C64.15 62.54 66.39 58.15 66.32 52.28C66.25 46.68 64.11 42.71 62.73 40.23C58.21 32.09 51.15 28.04 47.67 26.37C45.23 25.3 42.25 24.3 38.78 23.74C27.53 21.92 18.33 25.87 14.21 27.99C15.23 26.75 16.25 25.51 17.27 24.27L10.88 19.48L0.679989 32.98C0.499989 33.28 -0.320011 34.75 0.139989 36.62C0.549989 38.31 1.73999 39.21 2.05999 39.44L16.52 47.42L20 41.06L16.7 39.44C19.07 38.05 23.31 35.99 28.95 35.58C38.61 34.87 45.67 39.48 47.84 41.03C49 41.91 51.12 43.78 52.61 46.88C54.3 50.4 54.25 53.61 54.14 55.08C54.14 55.08 53.45 62.5 45.92 63.44C45.12 63.49 41.72 63.63 39.22 61.22C37.15 59.23 36.89 56.68 36.68 54.71C36.47 52.66 36.59 50.18 38.12 45.71C39.43 41.87 40.55 41 44.15 33.65C44.89 32.13 45.48 30.88 45.86 30.05C49.16 23.88 52.46 17.71 55.76 11.54H59L80.5 56Z" fill="#8F46EF"/>
</g>
<defs>
<clipPath id="clip0_32_175">
<rect width="247.75" height="93.27" fill="white"/>
</clipPath>
</defs>
</svg>
